<?xml version="1.0" encoding="iso-8859-1"?>
<!-- Generator: Adobe Illustrator 19.0.0, SVG Export Plug-In . SVG Version: 6.00 Build 0)  -->
<svg version="1.1" id="Capa_1" xmlns="http://www.w3.org/2000/svg" xmlns:xlink="http://www.w3.org/1999/xlink" x="0px" y="0px"
	 viewBox="0 0 512 512" style="enable-background:new 0 0 512 512;" xml:space="preserve">
<g>
	<g>
		<g>
			<path d="M501.333,256H480c-2.313,0-4.563,0.75-6.396,2.135L433.771,288H384v-32c0-19.645-13.414-36.056-31.508-40.997
				C371.564,199.34,384,175.882,384,149.333C384,102.281,345.729,64,298.667,64c-35.271,0-65.599,21.507-78.585,52.087
				C206.483,97.539,184.707,85.333,160,85.333c-41.167,0-74.667,33.5-74.667,74.667c0,27.299,14.891,50.977,36.822,64
				c-12.697,7.54-22.923,18.612-29.332,32H55.854l-40.417-20.208c-3.313-1.667-7.25-1.479-10.375,0.469
				C1.917,238.208,0,241.635,0,245.333v85.333c0,3.698,1.917,7.125,5.063,9.073c1.708,1.063,3.646,1.594,5.604,1.594
				c1.625,0,3.271-0.375,4.771-1.125L55.854,320h29.479v53.333C85.333,414.5,118.833,448,160,448h181.333
				C364.854,448,384,428.865,384,405.333v-10.667h49.771l39.833,29.865c1.833,1.385,4.083,2.135,6.396,2.135h21.333
				c5.896,0,10.667-4.771,10.667-10.667V266.667C512,260.771,507.229,256,501.333,256z M42.667,302.74l-21.333,10.667v-50.813
				l21.333,10.667V302.74z M85.333,288v10.667H64v-21.333h22.411C85.902,280.848,85.333,284.348,85.333,288z M298.667,85.333
				c35.292,0,64,28.708,64,64c0,35.292-28.708,64-64,64c-35.292,0-64-28.708-64-64C234.667,114.042,263.375,85.333,298.667,85.333z
				 M226.189,193.818c4.533,7.357,10.154,13.857,16.632,19.516h-30.73C217.85,207.706,222.478,201.046,226.189,193.818z
				 M106.667,160c0-29.406,23.917-53.333,53.333-53.333s53.333,23.927,53.333,53.333S189.417,213.333,160,213.333
				S106.667,189.406,106.667,160z M362.667,405.333c0,11.76-9.563,21.333-21.333,21.333H160c-29.417,0-53.333-23.927-53.333-53.333
				V288c0-29.406,23.917-53.333,53.333-53.333h181.333c11.771,0,21.333,9.573,21.333,21.333V405.333z M490.667,405.333h-7.104
				l-39.833-29.865c-1.833-1.385-4.083-2.135-6.396-2.135H384v-64h53.333c2.313,0,4.563-0.75,6.396-2.135l39.833-29.865h7.104
				V405.333z"/>
			<path d="M170.667,320C147.146,320,128,339.135,128,362.667s19.146,42.667,42.667,42.667c23.521,0,42.667-19.135,42.667-42.667
				S194.188,320,170.667,320z M170.667,384c-11.771,0-21.333-9.573-21.333-21.333s9.563-21.333,21.333-21.333
				c11.771,0,21.333,9.573,21.333,21.333S182.438,384,170.667,384z"/>
			<circle cx="256" cy="362.667" r="21.333"/>
			<circle cx="320" cy="362.667" r="21.333"/>
			<path d="M330.667,277.333H160c-5.896,0-10.667,4.771-10.667,10.667s4.771,10.667,10.667,10.667h170.667
				c5.896,0,10.667-4.771,10.667-10.667S336.563,277.333,330.667,277.333z"/>
		</g>
	</g>
</g>
<g>
</g>
<g>
</g>
<g>
</g>
<g>
</g>
<g>
</g>
<g>
</g>
<g>
</g>
<g>
</g>
<g>
</g>
<g>
</g>
<g>
</g>
<g>
</g>
<g>
</g>
<g>
</g>
<g>
</g>
</svg>
