<?xml version="1.0" encoding="iso-8859-1"?>
<!-- Generator: Adobe Illustrator 19.0.0, SVG Export Plug-In . SVG Version: 6.00 Build 0)  -->
<svg version="1.1" id="Capa_1" xmlns="http://www.w3.org/2000/svg" xmlns:xlink="http://www.w3.org/1999/xlink" x="0px" y="0px"
	 viewBox="0 0 512 512" style="enable-background:new 0 0 512 512;" xml:space="preserve">
<g>
	<g>
		<path d="M511.208,487.516c-13.745-46.228-33.732-104.936-50.892-122.095c-14.199-14.199-33.389-21.068-52.709-19.492
			l-38.667-36.929c-2.997-2.862-7.743-2.753-10.604,0.244c-2.861,2.995-2.751,7.742,0.244,10.604l31.371,29.961
			c-9.248,3.346-17.503,8.58-24.532,15.608c-7.051,7.051-12.333,15.398-15.638,24.502l-79.555-83.299l36.394-36.394l27.237,26.012
			c1.453,1.388,3.317,2.076,5.179,2.076c1.977,0,3.952-0.777,5.425-2.32c2.861-2.995,2.751-7.743-0.244-10.604l-26.988-25.774
			l171.25-171.251c9.551-9.551,14.804-22.242,14.792-35.726c0-13.374-5.169-25.979-14.555-35.488
			c-9.337-9.46-21.956-14.694-35.53-14.738c-0.056-0.001-0.111-0.001-0.167-0.001c-13.659,0-26.966,5.478-36.531,15.041
			L244.134,189.806L47.568,2.076c-2.947-2.814-7.602-2.76-10.483,0.12L2.197,37.085c-2.881,2.882-2.935,7.537-0.121,10.483
			l109.401,114.55c2.861,2.995,7.608,3.105,10.604,0.244c2.995-2.861,3.104-7.608,0.244-10.604L17.986,42.509l24.523-24.522
			l191.016,182.429l-33.109,33.109l-54.478-57.042c-2.862-2.996-7.609-3.106-10.604-0.244c-2.995,2.86-3.104,7.608-0.244,10.604
			l54.716,57.292l-57.452,57.452c-2.929,2.93-2.929,7.678,0,10.607c2.929,2.928,7.678,2.928,10.606,0L368.445,86.709l19.815,19.814
			L69.689,425.096c-5.878-6.888-10.674-14.519-14.316-22.792l0.503-1.248c0.796-1.976,1.963-3.74,3.469-5.246l59.448-59.447
			c2.929-2.93,2.929-7.678,0-10.607c-2.929-2.927-7.678-2.929-10.606,0L48.74,385.203c-2.942,2.94-5.222,6.389-6.776,10.247
			l-39.3,97.518c-2.418,6.001,3.739,12.188,9.76,9.76l97.519-39.299c3.859-1.555,7.307-3.835,10.247-6.775l139.426-139.426
			l86.286,90.347c0.026,0.028,0.056,0.051,0.083,0.078c-0.132,1.727-0.218,3.463-0.218,5.213
			c0.001,17.924,6.981,34.775,19.656,47.448c8.393,8.394,26.703,17.858,55.974,28.937c23.412,8.859,48.877,16.829,66.119,21.957
			c1.792,0.532,3.62,0.792,5.434,0.791c4.979,0,9.84-1.955,13.469-5.584C511.367,501.464,513.202,494.223,511.208,487.516z
			 M427.093,28.061c6.771-6.771,16.213-10.648,25.923-10.648c0.04,0,0.08,0,0.12,0.001c9.549,0.031,18.394,3.681,24.904,10.275
			c6.597,6.685,10.23,15.545,10.23,24.958c0.009,9.479-3.684,18.397-10.398,25.112l-25.657,25.657l-50.237-50.238L427.093,28.061z
			 M379.051,76.104l12.319-12.319l50.237,50.238l-12.318,12.318L379.051,76.104z M23.165,482.227l9.276-23.019l13.743,13.742
			L23.165,482.227z M61.305,466.859l-22.771-22.771L48,420.6c4.501,7.457,9.891,14.366,16.157,20.634
			c6.267,6.268,13.181,11.655,20.64,16.157L61.305,466.859z M109.582,446.047c-1.506,1.506-3.271,2.673-5.247,3.47l-1.247,0.502
			c-8.273-3.643-15.904-8.439-22.793-14.316l318.571-318.571l19.815,19.815L109.582,446.047z M495.809,495.808
			c-0.513,0.515-1.934,1.638-4.02,1.021c-17.001-5.056-42.095-12.907-65.085-21.608c-33.46-12.662-46.026-20.862-50.676-25.513
			v-0.001c-9.841-9.841-15.261-22.926-15.262-36.842c-0.001-13.917,5.418-27.002,15.258-36.843
			c5.671-5.671,12.354-9.853,19.868-12.429c5.63-1.935,11.399-2.877,17.104-2.877c13.548,0,26.722,5.32,36.712,15.311
			c11.317,11.316,28.933,54.592,47.12,115.763C497.449,493.876,496.322,495.295,495.809,495.808z"/>
	</g>
</g>
<g>
</g>
<g>
</g>
<g>
</g>
<g>
</g>
<g>
</g>
<g>
</g>
<g>
</g>
<g>
</g>
<g>
</g>
<g>
</g>
<g>
</g>
<g>
</g>
<g>
</g>
<g>
</g>
<g>
</g>
</svg>
