<?xml version="1.0" encoding="iso-8859-1"?>
<!-- Generator: Adobe Illustrator 19.0.0, SVG Export Plug-In . SVG Version: 6.00 Build 0)  -->
<svg version="1.1" id="Capa_1" xmlns="http://www.w3.org/2000/svg" xmlns:xlink="http://www.w3.org/1999/xlink" x="0px" y="0px"
	 viewBox="0 0 512 512" style="enable-background:new 0 0 512 512;" xml:space="preserve">
<g>
	<g>
		<g>
			<path d="M480,128v-16h-32v16h-16v-16h-32v16h-11.056L375.2,100.424c-1.362-2.725-4.153-4.441-7.2-4.424h-24V72
				c0-4.418-3.582-8-8-8H176c-4.418,0-8,3.582-8,8v24h-24c-3.028,0-5.796,1.709-7.152,4.416L123.024,128H96v-16H48v16H32
				c-17.673,0-32,14.327-32,32v256c0,17.673,14.327,32,32,32h448c17.673,0,32-14.327,32-32V160C512,142.327,497.673,128,480,128z
				 M32,144h96h208v-16H140.922l8.014-16H176c4.418,0,8-3.582,8-8V80h144v24c0,4.418,3.582,8,8,8h27.056l13.744,27.576
				c1.362,2.725,4.153,4.441,7.2,4.424h96c8.837,0,16,7.163,16,16v208H334.302c20.764-20.327,33.665-48.654,33.698-80
				c0-61.856-50.144-112-112-112s-112,50.144-112,112c0,31.342,12.879,59.671,33.627,80H16V160C16,151.163,23.163,144,32,144z
				 M160,288c0-53.019,42.981-96,96-96c52.996,0.057,95.943,43.004,96,96c0,53.019-42.981,96-96,96S160,341.019,160,288z M480,432
				H32c-8.837,0-16-7.163-16-16v-32h182.287c16.855,10.155,36.601,16,57.713,16c21.078-0.023,40.79-5.865,57.625-16H496v32
				C496,424.837,488.837,432,480,432z"/>
			<rect x="200" y="96" width="112" height="16"/>
			<path d="M328,288c0-39.765-32.235-72-72-72c-39.764,0-72,32.235-72,72c0,39.764,32.236,72,72,72
				C295.744,359.951,327.952,327.744,328,288z M200,288c0-30.928,25.072-56,56-56c30.913,0.035,55.965,25.087,56,56
				c0,30.928-25.072,56-56,56C225.072,344,200,318.928,200,288z"/>
			<path d="M256,256c-17.673,0-32,14.327-32,32h16c0-8.837,7.163-16,16-16V256z"/>
			<path d="M40,208h80c4.418,0,8-3.582,8-8v-32c0-4.418-3.582-8-8-8H40c-4.418,0-8,3.582-8,8v32C32,204.418,35.582,208,40,208z
				 M48,176h64v16H48V176z"/>
			<rect x="464" y="160" width="16" height="16"/>
			<rect x="432" y="160" width="16" height="16"/>
			<rect x="400" y="192" width="80" height="16"/>
		</g>
	</g>
</g>
<g>
</g>
<g>
</g>
<g>
</g>
<g>
</g>
<g>
</g>
<g>
</g>
<g>
</g>
<g>
</g>
<g>
</g>
<g>
</g>
<g>
</g>
<g>
</g>
<g>
</g>
<g>
</g>
<g>
</g>
</svg>
