<svg viewBox="0 -48 512 512" xmlns="http://www.w3.org/2000/svg"><path d="m504.484375 0h-432.84375c-4.152344 0-7.515625 3.363281-7.515625 7.515625v56.609375h-56.609375c-4.152344 0-7.515625 3.363281-7.515625 7.515625v336.65625c0 4.152344 3.363281 7.515625 7.515625 7.515625h432.84375c4.152344 0 7.515625-3.363281 7.515625-7.515625v-56.609375h56.609375c4.152344 0 7.515625-3.363281 7.515625-7.515625v-336.65625c0-4.152344-3.363281-7.515625-7.515625-7.515625zm-489.453125 400.78125v-78.707031l96.386719-103.839844 107.207031 107.207031c2.894531 2.894532 7.730469 2.894532 10.625 0l155-155.003906 48.59375 48.597656v181.746094zm481.9375-64.125h-49.09375v-265.015625c0-4.152344-3.363281-7.515625-7.515625-7.515625h-87.167969c-4.152344 0-7.515625 3.363281-7.515625 7.515625 0 4.148437 3.363281 7.515625 7.515625 7.515625h79.652344v118.625l-43.28125-43.28125c-2.933594-2.9375-7.691406-2.9375-10.625 0l-155 155-107.40625-107.410156c-2.96875-2.96875-7.960938-2.878906-10.820312.203125l-90.679688 97.6875v-220.824219h301.585938c4.152343 0 7.515624-3.367188 7.515624-7.515625 0-4.152344-3.363281-7.515625-7.515624-7.515625h-237.460938v-49.09375h417.8125zm0 0"/><path d="m223.9375 104.203125c-26.242188 0-47.59375 21.351563-47.59375 47.59375s21.351562 47.59375 47.59375 47.59375 47.59375-21.351563 47.59375-47.59375-21.351562-47.59375-47.59375-47.59375zm0 80.15625c-17.957031 0-32.5625-14.609375-32.5625-32.5625 0-17.957031 14.605469-32.5625 32.5625-32.5625 17.953125 0 32.5625 14.605469 32.5625 32.5625 0 17.953125-14.609375 32.5625-32.5625 32.5625zm0 0"/></svg>